<svg aria-hidden="true" style="position:absolute;width:0;height:0" xmlns="http://www.w3.org/2000/svg" overflow="hidden">
    <defs>
        <symbol id="male" viewbox="0 0 32 32"><path d="M15.0491 8.53666L18.5858 5H14V3H22V11H20V6.41421L16.4633 9.95088C17.4274 11.2127 18 12.7895 18 14.5C18 18.6421 14.6421 22 10.5 22C6.35786 22 3 18.6421 3 14.5C3 10.3579 6.35786 7 10.5 7C12.2105 7 13.7873 7.57264 15.0491 8.53666ZM10.5 20C13.5376 20 16 17.5376 16 14.5C16 11.4624 13.5376 9 10.5 9C7.46243 9 5 11.4624 5 14.5C5 17.5376 7.46243 20 10.5 20Z"></path></symbol>
        <symbol id="female" viewbox="0 0 32 32"><path d="M11 15.9339C7.33064 15.445 4.5 12.3031 4.5 8.5C4.5 4.35786 7.85786 1 12 1C16.1421 1 19.5 4.35786 19.5 8.5C19.5 12.3031 16.6694 15.445 13 15.9339V18H18V20H13V24H11V20H6V18H11V15.9339ZM12 14C15.0376 14 17.5 11.5376 17.5 8.5C17.5 5.46243 15.0376 3 12 3C8.96243 3 6.5 5.46243 6.5 8.5C6.5 11.5376 8.96243 14 12 14Z"></path></symbol>
        <symbol id="close" viewbox="0 0 24 24"><path d="M12.0007 10.5865L16.9504 5.63672L18.3646 7.05093L13.4149 12.0007L18.3646 16.9504L16.9504 18.3646L12.0007 13.4149L7.05093 18.3646L5.63672 16.9504L10.5865 12.0007L5.63672 7.05093L7.05093 5.63672L12.0007 10.5865Z"></path></symbol>
</defs> 
</svg>